<svg xmlns="http://www.w3.org/2000/svg" width="30" height="30" viewBox="0 0 30 30">
  <g id="_" data-name="$" transform="translate(-3067 -4649)">
    <rect id="Rectangle_1664" data-name="Rectangle 1664" width="30" height="30" transform="translate(3067 4649)" fill="none"/>
    <g id="svgexport-17_1_" data-name="svgexport-17 (1)" transform="translate(2960.348 4654)">
      <path id="Path_3925" data-name="Path 3925" d="M124.261,8.681a23.01,23.01,0,0,0-2.337-1.058,5.246,5.246,0,0,1-1.283-.718,1.116,1.116,0,0,1,.276-1.985,2.252,2.252,0,0,1,.785-.162,5.962,5.962,0,0,1,2.952.584c.466.225.62.154.778-.332.166-.513.3-1.034.458-1.551a.542.542,0,0,0-.351-.722,7.505,7.505,0,0,0-1.863-.557c-.845-.13-.845-.134-.849-.983,0-1.2,0-1.2-1.2-1.2-.174,0-.347,0-.521,0-.56.016-.655.114-.671.679-.008.253,0,.505,0,.762,0,.75-.008.738-.726,1a4,4,0,0,0-2.925,3.71,3.8,3.8,0,0,0,2.151,3.635,23.781,23.781,0,0,0,2.688,1.208,3.993,3.993,0,0,1,.979.576,1.342,1.342,0,0,1-.32,2.352,3.219,3.219,0,0,1-1.725.225,7.7,7.7,0,0,1-2.629-.785c-.485-.253-.628-.186-.793.339-.142.454-.268.912-.395,1.37-.17.616-.107.762.482,1.05a8.394,8.394,0,0,0,2.368.679c.639.1.659.13.667.793,0,.3,0,.6.008.9a.537.537,0,0,0,.576.608c.442.008.888.008,1.33,0a.506.506,0,0,0,.549-.572c0-.41.02-.825,0-1.235a.652.652,0,0,1,.564-.742,4.461,4.461,0,0,0,2.325-1.492,4.2,4.2,0,0,0-1.346-6.379Z" transform="translate(0 0)" fill="#ffd911"/>
    </g>
  </g>
</svg>
