<svg xmlns="http://www.w3.org/2000/svg" xmlns:xlink="http://www.w3.org/1999/xlink" width="72.626" height="67.446" viewBox="0 0 72.626 67.446">
  <defs>
    <filter id="Path_880" x="0" y="0" width="72.626" height="55.36" filterUnits="userSpaceOnUse">
      <feOffset dy="3" input="SourceAlpha"/>
      <feGaussianBlur stdDeviation="7.5" result="blur"/>
      <feFlood flood-opacity="0.102"/>
      <feComposite operator="in" in2="blur"/>
      <feComposite in="SourceGraphic"/>
    </filter>
    <filter id="Path_881" x="1.727" y="11.389" width="69.173" height="56.057" filterUnits="userSpaceOnUse">
      <feOffset dy="3" input="SourceAlpha"/>
      <feGaussianBlur stdDeviation="7.5" result="blur-2"/>
      <feFlood flood-opacity="0.102"/>
      <feComposite operator="in" in2="blur-2"/>
      <feComposite in="SourceGraphic"/>
    </filter>
  </defs>
  <g id="agency_par" transform="translate(1092.126 -4704.741)">
    <rect id="Rectangle_1658" data-name="Rectangle 1658" width="28" height="28" transform="translate(-1070 4721)" fill="none"/>
    <g id="store" transform="translate(-1069.626 4724.241)">
      <g id="Group_214" data-name="Group 214" transform="translate(0 0)">
        <g id="Group_213" data-name="Group 213">
          <g transform="matrix(1, 0, 0, 1, -22.5, -19.5)" filter="url(#Path_880)">
            <path id="Path_880-2" data-name="Path 880" d="M27.471,54.409l-4.317-6.043A.9.9,0,0,0,22.447,48H5.18a.9.9,0,0,0-.708.363L.156,54.409,0,54.875a3.46,3.46,0,0,0,3.453,3.488,3.423,3.423,0,0,0,2.59-1.174,3.444,3.444,0,0,0,5.18,0,3.444,3.444,0,0,0,5.18,0,3.444,3.444,0,0,0,5.18,0,3.423,3.423,0,0,0,2.59,1.174,3.46,3.46,0,0,0,3.453-3.488Z" transform="translate(22.5 -28.5)" fill="#ffd600"/>
          </g>
        </g>
      </g>
      <g id="Group_216" data-name="Group 216" transform="translate(1.727 11.389)">
        <g id="Group_215" data-name="Group 215">
          <g transform="matrix(1, 0, 0, 1, -24.23, -30.89)" filter="url(#Path_881)">
            <path id="Path_881-2" data-name="Path 881" d="M54.449,259.773a5.167,5.167,0,0,1-2.59-.7,5.291,5.291,0,0,1-5.18,0,5.291,5.291,0,0,1-5.18,0,5.291,5.291,0,0,1-5.18,0,5.25,5.25,0,0,1-4.317.361v8.97a1.727,1.727,0,0,0,1.727,1.727H47.543V261.5h5.18v8.633h1.727a1.727,1.727,0,0,0,1.727-1.727v-8.949A5.149,5.149,0,0,1,54.449,259.773Zm-12.086,6.906H35.456V261.5h6.906Z" transform="translate(-7.78 -228.19)" fill="#ffd600"/>
          </g>
        </g>
      </g>
    </g>
  </g>
</svg>
