<svg xmlns="http://www.w3.org/2000/svg" width="25" height="25" viewBox="0 0 25 25">
  <g id="Group_1654" data-name="Group 1654" transform="translate(1140 -3259)">
    <rect id="Rectangle_1650" data-name="Rectangle 1650" width="25" height="25" transform="translate(-1140 3259)" fill="none"/>
    <g id="right-arrow" transform="translate(-1233.639 3263.566)">
      <g id="Group_204" data-name="Group 204" transform="translate(101.478)">
        <path id="Path_875" data-name="Path 875" d="M110.547,7.314,103.486.253a.87.87,0,0,0-1.228,0l-.52.52a.869.869,0,0,0,0,1.228l5.929,5.929-5.936,5.936a.87.87,0,0,0,0,1.228l.52.52a.87.87,0,0,0,1.228,0l7.068-7.067a.876.876,0,0,0,0-1.232Z" transform="translate(-101.478)" fill="#fff"/>
      </g>
    </g>
  </g>
</svg>
