<svg xmlns="http://www.w3.org/2000/svg" width="30" height="30" viewBox="0 0 30 30">
  <g id="calendar" transform="translate(-3018 -4613)">
    <rect id="Rectangle_1662" data-name="Rectangle 1662" width="30" height="30" transform="translate(3018 4613)" fill="none"/>
    <g id="calendar-2" data-name="calendar" transform="translate(3024 4620)">
      <path id="Path_1217" data-name="Path 1217" d="M16.295,3.84H15.11V4.89a1.359,1.359,0,0,1-2.718,0V3.84H10.186V4.89a1.359,1.359,0,0,1-2.718,0V3.84H5.262V4.89a1.359,1.359,0,0,1-2.718,0V3.84H1.359A1.358,1.358,0,0,0,0,5.2V16.811A1.359,1.359,0,0,0,1.359,18.17H16.295a1.358,1.358,0,0,0,1.359-1.359V5.2A1.359,1.359,0,0,0,16.295,3.84Zm-1.359,4.3v1.971H12.371V8.135ZM5.891,10.714H8.523v1.869H5.891V10.714Zm-.607,1.868H2.719V10.713H5.284v1.869Zm3.24.608v2.262H5.891V13.189Zm.608,0h2.631v2.262H9.131Zm0-.608V10.713h2.631v1.869Zm3.239-1.868h2.565v1.869H12.371Zm-.607-2.579v1.971H9.131V8.135Zm-3.24,0v1.971H5.891V8.135Zm-3.24,0v1.971H2.719V8.135ZM2.719,13.189H5.284v2.262H2.719Zm9.652,2.262V13.189h2.565v2.262ZM3.126,4.89v-1.8a.777.777,0,0,1,1.553,0v1.8a.777.777,0,0,1-1.553,0Zm4.924,0v-1.8a.777.777,0,0,1,1.553,0v1.8a.777.777,0,0,1-1.553,0Zm4.925,0v-1.8a.777.777,0,0,1,1.553,0v1.8a.777.777,0,0,1-1.553,0Z" transform="translate(0 -2.31)" fill="#ffd911"/>
    </g>
  </g>
</svg>
