<svg id="dealers_menu" xmlns="http://www.w3.org/2000/svg" width="20.836" height="16.929" viewBox="0 0 20.836 16.929">
  <g id="Group_214" data-name="Group 214" transform="translate(0 0)">
    <g id="Group_213" data-name="Group 213">
      <path id="Path_880" data-name="Path 880" d="M20.719,52.834l-3.256-4.558A.679.679,0,0,0,16.929,48H3.907a.679.679,0,0,0-.534.273L.118,52.834,0,53.186a2.609,2.609,0,0,0,2.6,2.63,2.582,2.582,0,0,0,1.953-.885,2.6,2.6,0,0,0,3.907,0,2.6,2.6,0,0,0,3.907,0,2.6,2.6,0,0,0,3.907,0,2.582,2.582,0,0,0,1.953.885,2.609,2.609,0,0,0,2.6-2.63Z" transform="translate(0 -48.003)" fill="#fff"/>
    </g>
  </g>
  <g id="Group_216" data-name="Group 216" transform="translate(1.302 8.589)">
    <g id="Group_215" data-name="Group 215">
      <path id="Path_881" data-name="Path 881" d="M48.932,259.6a3.9,3.9,0,0,1-1.953-.526,3.99,3.99,0,0,1-3.907,0,3.99,3.99,0,0,1-3.907,0,3.99,3.99,0,0,1-3.907,0,3.959,3.959,0,0,1-3.256.272v6.765a1.3,1.3,0,0,0,1.3,1.3H43.723V260.9h3.907v6.511h1.3a1.3,1.3,0,0,0,1.3-1.3v-6.749A3.883,3.883,0,0,1,48.932,259.6Zm-9.115,5.209H34.607V260.9h5.209Z" transform="translate(-32.003 -259.075)" fill="#fff"/>
    </g>
  </g>
</svg>
