<svg xmlns="http://www.w3.org/2000/svg" width="26.801" height="15.976" viewBox="0 0 26.801 15.976">
  <g id="eye_icon" data-name="eye icon" transform="translate(0 0)">
    <path id="Path_737" data-name="Path 737" d="M13.4,98.725c-5.121,0-9.764,2.8-13.191,7.352a1.061,1.061,0,0,0,0,1.266C3.636,111.9,8.28,114.7,13.4,114.7s9.764-2.8,13.191-7.352a1.061,1.061,0,0,0,0-1.266C23.164,101.527,18.521,98.725,13.4,98.725Zm.367,13.613a5.637,5.637,0,1,1,5.258-5.258A5.64,5.64,0,0,1,13.768,112.338Zm-.17-2.6a3.035,3.035,0,1,1,2.834-2.834A3.03,3.03,0,0,1,13.6,109.739Z" transform="translate(0 -98.725)" fill="rgba(0,0,0,0.28)"/>
  </g>
</svg>
