<svg xmlns="http://www.w3.org/2000/svg" width="25" height="25" viewBox="0 0 25 25">
  <g id="Group_1653" data-name="Group 1653" transform="translate(1140 -3259)">
    <rect id="Rectangle_1650" data-name="Rectangle 1650" width="25" height="25" transform="translate(-1140 3259)" fill="none"/>
    <g id="filter" transform="translate(-1136.181 3280.18) rotate(-90)">
      <path id="Path_871" data-name="Path 871" d="M14.255,0H3.106A3.109,3.109,0,0,0,0,3.106V14.255a3.109,3.109,0,0,0,3.106,3.106H14.255a3.109,3.109,0,0,0,3.106-3.106V3.106A3.109,3.109,0,0,0,14.255,0Zm2.089,14.255a2.091,2.091,0,0,1-2.089,2.089H3.106a2.091,2.091,0,0,1-2.089-2.089V3.106A2.091,2.091,0,0,1,3.106,1.017H14.255a2.091,2.091,0,0,1,2.089,2.089Z" transform="translate(0 0)" fill="#fff"/>
      <path id="Path_872" data-name="Path 872" d="M76.761,81.424H69.014a1.6,1.6,0,0,0-3.03,0H64.776a.509.509,0,1,0,0,1.017h1.209a1.6,1.6,0,0,0,3.03,0h7.747a.509.509,0,1,0,0-1.017ZM67.5,82.513a.581.581,0,1,1,.581-.581A.582.582,0,0,1,67.5,82.513Z" transform="translate(-62.088 -77.61)" fill="#fff"/>
      <path id="Path_873" data-name="Path 873" d="M76.761,209.957H75.552a1.6,1.6,0,0,0-3.029,0H64.776a.509.509,0,0,0,0,1.017h7.747a1.6,1.6,0,0,0,3.03,0h1.209a.509.509,0,1,0,0-1.017Zm-2.724,1.09a.581.581,0,1,1,.581-.581A.582.582,0,0,1,74.037,211.046Z" transform="translate(-62.088 -201.785)" fill="#fff"/>
      <path id="Path_874" data-name="Path 874" d="M76.761,338.49H71.194a1.6,1.6,0,0,0-3.03,0H64.776a.509.509,0,0,0,0,1.017h3.388a1.6,1.6,0,0,0,3.03,0h5.568a.509.509,0,0,0,0-1.017Zm-7.082,1.09A.581.581,0,1,1,70.26,339,.582.582,0,0,1,69.679,339.579Z" transform="translate(-62.088 -325.959)" fill="#fff"/>
    </g>
  </g>
</svg>
