<svg xmlns="http://www.w3.org/2000/svg" width="22.374" height="20.294" viewBox="0 0 22.374 20.294">
  <path id="heart_1_" data-name="heart (1)" d="M15.852,22.543a6.452,6.452,0,0,0-2.963.711,6.574,6.574,0,0,0-1.7,1.254,6.574,6.574,0,0,0-1.7-1.254,6.452,6.452,0,0,0-2.963-.711A6.53,6.53,0,0,0,0,29.066c0,2.547,1.345,5.253,4,8.042a38.666,38.666,0,0,0,6.813,5.487l.376.243.376-.243a38.664,38.664,0,0,0,6.813-5.487c2.653-2.789,4-5.494,4-8.042A6.53,6.53,0,0,0,15.852,22.543Z" transform="translate(0 -22.543)" fill="#ffd600"/>
</svg>
