<svg xmlns="http://www.w3.org/2000/svg" width="20.628" height="20.63" viewBox="0 0 20.628 20.63">
  <path id="home_menu" d="M20.074,8.973h0L11.657.556a1.9,1.9,0,0,0-2.686,0L.56,8.967l-.008.009a1.9,1.9,0,0,0,1.264,3.236l.059,0h.335v6.193A2.225,2.225,0,0,0,4.432,20.63H7.725a.6.6,0,0,0,.6-.6V15.17a1.015,1.015,0,0,1,1.014-1.014h1.942A1.015,1.015,0,0,1,12.3,15.17v4.855a.6.6,0,0,0,.6.6H16.2a2.225,2.225,0,0,0,2.223-2.223V12.214h.311a1.9,1.9,0,0,0,1.344-3.241Zm0,0" transform="translate(0 0)" fill="#fff"/>
</svg>
