<svg xmlns="http://www.w3.org/2000/svg" width="28" height="28" viewBox="0 0 28 28">
  <g id="home_Par" transform="translate(1260 -4721)">
    <rect id="Rectangle_1655" data-name="Rectangle 1655" width="28" height="28" transform="translate(-1260 4721)" fill="none"/>
    <path id="home" d="M22.062,9.861l0,0L12.811.611a2.087,2.087,0,0,0-2.952,0L.615,9.855l-.009.01A2.086,2.086,0,0,0,1.995,13.42q.032,0,.064,0h.369V20.23a2.446,2.446,0,0,0,2.443,2.443H8.489a.664.664,0,0,0,.664-.664V16.672a1.116,1.116,0,0,1,1.115-1.115H12.4a1.116,1.116,0,0,1,1.115,1.115v5.336a.664.664,0,0,0,.664.664H17.8a2.446,2.446,0,0,0,2.443-2.443V13.423h.342a2.087,2.087,0,0,0,1.477-3.562Zm0,0" transform="translate(-1257.335 4723.664)" fill="#ffd600"/>
  </g>
</svg>
