<svg xmlns="http://www.w3.org/2000/svg" width="4.743" height="10.734" viewBox="0 0 4.743 10.734">
  <g id="info" transform="translate(-31.139)">
    <path id="Path_1227" data-name="Path 1227" d="M35.74,9.575l-.15.613q-.675.266-1.077.406a2.841,2.841,0,0,1-.934.14,1.864,1.864,0,0,1-1.271-.4,1.29,1.29,0,0,1-.453-1.012,3.581,3.581,0,0,1,.034-.487q.034-.249.11-.562l.562-1.99q.075-.286.127-.542a2.355,2.355,0,0,0,.051-.466.721.721,0,0,0-.157-.532.889.889,0,0,0-.6-.15,1.576,1.576,0,0,0-.447.068c-.153.045-.284.089-.393.129l.15-.614q.553-.225,1.057-.385a3.162,3.162,0,0,1,.956-.16,1.819,1.819,0,0,1,1.251.392,1.3,1.3,0,0,1,.44,1.019c0,.086-.01.239-.03.457a3.054,3.054,0,0,1-.113.6l-.56,1.982a5.267,5.267,0,0,0-.123.546,2.811,2.811,0,0,0-.055.463.668.668,0,0,0,.176.538,1,1,0,0,0,.613.143,1.769,1.769,0,0,0,.463-.072A2.589,2.589,0,0,0,35.74,9.575Zm.142-8.322a1.16,1.16,0,0,1-.392.883,1.333,1.333,0,0,1-.943.365,1.348,1.348,0,0,1-.948-.365,1.157,1.157,0,0,1-.4-.883,1.169,1.169,0,0,1,.4-.886,1.4,1.4,0,0,1,1.891,0A1.171,1.171,0,0,1,35.882,1.253Z" fill="#737373"/>
  </g>
</svg>
