<svg xmlns="http://www.w3.org/2000/svg" width="18.16" height="18.141" viewBox="0 0 18.16 18.141">
  <g id="language_menu" transform="translate(0 -0.256)">
    <g id="Group_303" data-name="Group 303" transform="translate(9.92 0.256)">
      <g id="Group_302" data-name="Group 302">
        <path id="Path_1196" data-name="Path 1196" d="M260.113.256A18.371,18.371,0,0,1,262.5,5.131a10.531,10.531,0,0,0,3.584-1.256l.325-.2A9.093,9.093,0,0,0,260.113.256Z" transform="translate(-260.113 -0.256)" fill="#fdfdfd"/>
      </g>
    </g>
    <g id="Group_305" data-name="Group 305" transform="translate(6.496 6.592)">
      <g id="Group_304" data-name="Group 304">
        <path id="Path_1197" data-name="Path 1197" d="M175.188,166.4a20,20,0,0,1-4.556,0,12.431,12.431,0,0,0-.306,2.083h5.168A12.434,12.434,0,0,0,175.188,166.4Z" transform="translate(-170.326 -166.4)" fill="#fdfdfd"/>
      </g>
    </g>
    <g id="Group_307" data-name="Group 307" transform="translate(7.16 13.232)">
      <g id="Group_306" data-name="Group 306">
        <path id="Path_1198" data-name="Path 1198" d="M189.653,340.48a18.891,18.891,0,0,0-1.92.1,17.471,17.471,0,0,0,1.92,3.976,17.473,17.473,0,0,0,1.92-3.976A18.891,18.891,0,0,0,189.653,340.48Z" transform="translate(-187.733 -340.48)" fill="#fdfdfd"/>
      </g>
    </g>
    <g id="Group_309" data-name="Group 309" transform="translate(12.65 9.977)">
      <g id="Group_308" data-name="Group 308">
        <path id="Path_1199" data-name="Path 1199" d="M332,255.147a13.784,13.784,0,0,1-.311,2.282,11.652,11.652,0,0,1,3.934,1.414l.368.229a9.052,9.052,0,0,0,1.208-3.925Z" transform="translate(-331.69 -255.147)" fill="#fdfdfd"/>
      </g>
    </g>
    <g id="Group_311" data-name="Group 311" transform="translate(12.65 4.751)">
      <g id="Group_310" data-name="Group 310">
        <path id="Path_1200" data-name="Path 1200" d="M335.992,118.118l-.368.229a11.651,11.651,0,0,1-3.934,1.417,13.79,13.79,0,0,1,.311,2.278h5.2A9.052,9.052,0,0,0,335.992,118.118Z" transform="translate(-331.69 -118.118)" fill="#fdfdfd"/>
      </g>
    </g>
    <g id="Group_313" data-name="Group 313" transform="translate(6.496 9.977)">
      <g id="Group_312" data-name="Group 312">
        <path id="Path_1201" data-name="Path 1201" d="M170.325,255.147a12.426,12.426,0,0,0,.307,2.083,20.075,20.075,0,0,1,4.556,0,12.43,12.43,0,0,0,.3-2.083Z" transform="translate(-170.325 -255.147)" fill="#fdfdfd"/>
      </g>
    </g>
    <g id="Group_315" data-name="Group 315" transform="translate(0 4.751)">
      <g id="Group_314" data-name="Group 314">
        <path id="Path_1202" data-name="Path 1202" d="M1.576,118.347l-.368-.229A9.053,9.053,0,0,0,0,122.042H5.2a13.788,13.788,0,0,1,.31-2.278A11.651,11.651,0,0,1,1.576,118.347Z" transform="translate(0 -118.118)" fill="#fdfdfd"/>
      </g>
    </g>
    <g id="Group_317" data-name="Group 317" transform="translate(1.939 13.523)">
      <g id="Group_316" data-name="Group 316">
        <path id="Path_1203" data-name="Path 1203" d="M54.752,348.109a10.544,10.544,0,0,0-3.584,1.255l-.325.2a9.09,9.09,0,0,0,6.3,3.417A18.357,18.357,0,0,1,54.752,348.109Z" transform="translate(-50.842 -348.109)" fill="#fdfdfd"/>
      </g>
    </g>
    <g id="Group_319" data-name="Group 319" transform="translate(7.16 1.346)">
      <g id="Group_318" data-name="Group 318">
        <path id="Path_1204" data-name="Path 1204" d="M189.653,28.826a17.48,17.48,0,0,0-1.92,3.976,18.563,18.563,0,0,0,3.84,0A17.48,17.48,0,0,0,189.653,28.826Z" transform="translate(-187.733 -28.826)" fill="#fdfdfd"/>
      </g>
    </g>
    <g id="Group_321" data-name="Group 321" transform="translate(9.918 13.523)">
      <g id="Group_320" data-name="Group 320">
        <path id="Path_1205" data-name="Path 1205" d="M266.039,349.363a10.545,10.545,0,0,0-3.584-1.255,18.355,18.355,0,0,1-2.393,4.874,9.09,9.09,0,0,0,6.3-3.417Z" transform="translate(-260.062 -348.108)" fill="#fdfdfd"/>
      </g>
    </g>
    <g id="Group_323" data-name="Group 323" transform="translate(1.941 0.256)">
      <g id="Group_322" data-name="Group 322" transform="translate(0 0)">
        <path id="Path_1206" data-name="Path 1206" d="M50.893,3.674l.323.2A10.532,10.532,0,0,0,54.8,5.132,18.37,18.37,0,0,1,57.194.257,9.093,9.093,0,0,0,50.893,3.674Z" transform="translate(-50.893 -0.257)" fill="#fdfdfd"/>
      </g>
    </g>
    <g id="Group_325" data-name="Group 325" transform="translate(0 9.977)">
      <g id="Group_324" data-name="Group 324">
        <path id="Path_1207" data-name="Path 1207" d="M5.2,255.147H0a9.052,9.052,0,0,0,1.208,3.925l.368-.229a11.652,11.652,0,0,1,3.934-1.414A13.779,13.779,0,0,1,5.2,255.147Z" transform="translate(0 -255.147)" fill="#fdfdfd"/>
      </g>
    </g>
  </g>
</svg>
