<svg xmlns="http://www.w3.org/2000/svg" width="30" height="30" viewBox="0 0 30 30">
  <g id="location_icon" transform="translate(-3067 -4613)">
    <rect id="Rectangle_1661" data-name="Rectangle 1661" width="30" height="30" transform="translate(3067 4613)" fill="none"/>
    <g id="pin" transform="translate(2995.215 4618.771)">
      <path id="Path_1212" data-name="Path 1212" d="M91.912,3.2A6.334,6.334,0,0,0,86.529,0c-.1,0-.192,0-.287,0a6.335,6.335,0,0,0-5.383,3.2,6.5,6.5,0,0,0-.085,6.421L85.4,18.089l.006.011a1.125,1.125,0,0,0,1.952,0l.006-.011L92,9.617A6.5,6.5,0,0,0,91.912,3.2ZM86.385,8.458A2.625,2.625,0,1,1,89.01,5.833,2.628,2.628,0,0,1,86.385,8.458Z" transform="translate(0 0)" fill="#ffd600"/>
    </g>
  </g>
</svg>
