<svg xmlns="http://www.w3.org/2000/svg" width="18.096" height="18.097" viewBox="0 0 18.096 18.097">
  <g id="logout_menu" transform="translate(-0.014)">
    <g id="Group_327" data-name="Group 327" transform="translate(0.014)">
      <g id="Group_326" data-name="Group 326">
        <path id="Path_1210" data-name="Path 1210" d="M306.162,152.067a.762.762,0,0,0-.164-.246l-2.261-2.261a.754.754,0,0,0-1.066,1.066l.975.975h-4.212a.754.754,0,0,0,0,1.508h4.212l-.975.975a.754.754,0,1,0,1.066,1.066L306,152.889a.747.747,0,0,0,.164-.246A.755.755,0,0,0,306.162,152.067Z" transform="translate(-288.123 -144.06)" fill="#fff"/>
        <path id="Path_1211" data-name="Path 1211" d="M12.833,10.557a.754.754,0,0,0-.754.754v3.77H9.063V3.016a.755.755,0,0,0-.538-.722L5.906,1.508h6.173v3.77a.754.754,0,1,0,1.508,0V.754A.754.754,0,0,0,12.833,0H.768A.672.672,0,0,0,.69.014a.745.745,0,0,0-.32.112C.354.136.334.137.318.149S.31.162.3.167A.747.747,0,0,0,.1.4.616.616,0,0,0,.082.468a.715.715,0,0,0-.06.176.469.469,0,0,0,0,.066C.024.725.014.739.014.754V15.835a.753.753,0,0,0,.606.739l7.54,1.508a.7.7,0,0,0,.148.015.755.755,0,0,0,.754-.754v-.754h3.77a.754.754,0,0,0,.754-.754V11.311A.754.754,0,0,0,12.833,10.557Z" transform="translate(-0.014)" fill="#fff"/>
      </g>
    </g>
  </g>
</svg>
