<svg xmlns="http://www.w3.org/2000/svg" width="30" height="30" viewBox="0 0 30 30">
  <g id="palette" transform="translate(-3067 -4613)">
    <rect id="Rectangle_1661" data-name="Rectangle 1661" width="30" height="30" transform="translate(3067 4613)" fill="none"/>
    <g id="palette-2" data-name="palette" transform="translate(3072 4618)">
      <g id="Group_343" data-name="Group 343">
        <path id="Path_1226" data-name="Path 1226" d="M9.581,0a9.581,9.581,0,1,0,0,19.161,1.6,1.6,0,0,0,1.6-1.6,1.561,1.561,0,0,0-.415-1.07,1.6,1.6,0,0,1,1.2-2.656h1.879a5.325,5.325,0,0,0,5.323-5.323C19.161,3.811,14.871,0,9.581,0ZM3.726,9.581a1.6,1.6,0,1,1,1.6-1.6A1.595,1.595,0,0,1,3.726,9.581ZM6.919,5.323a1.6,1.6,0,1,1,1.6-1.6A1.595,1.595,0,0,1,6.919,5.323Zm5.323,0a1.6,1.6,0,1,1,1.6-1.6A1.595,1.595,0,0,1,12.242,5.323Zm3.194,4.258a1.6,1.6,0,1,1,1.6-1.6A1.595,1.595,0,0,1,15.435,9.581Z" fill="#ffd911"/>
      </g>
    </g>
  </g>
</svg>
