<svg xmlns="http://www.w3.org/2000/svg" width="17.832" height="21.374" viewBox="0 0 17.832 21.374">
  <g id="profile_menu" transform="translate(0)">
    <path id="Path_1208" data-name="Path 1208" d="M92.18,10.3a4.981,4.981,0,0,0,3.64-1.508,4.981,4.981,0,0,0,1.508-3.64,4.982,4.982,0,0,0-1.508-3.64,5.147,5.147,0,0,0-7.28,0,4.981,4.981,0,0,0-1.508,3.64,4.981,4.981,0,0,0,1.508,3.64A4.982,4.982,0,0,0,92.18,10.3Zm0,0" transform="translate(-83.399 0)" fill="#fdfdfd"/>
    <path id="Path_1209" data-name="Path 1209" d="M17.788,253.427a12.715,12.715,0,0,0-.173-1.35,10.639,10.639,0,0,0-.332-1.358,6.707,6.707,0,0,0-.558-1.266,4.779,4.779,0,0,0-.842-1.1,3.711,3.711,0,0,0-1.209-.76,4.178,4.178,0,0,0-1.544-.279,1.567,1.567,0,0,0-.837.355c-.251.164-.544.353-.872.562a4.994,4.994,0,0,1-1.128.5,4.379,4.379,0,0,1-2.759,0,4.983,4.983,0,0,1-1.127-.5c-.324-.207-.618-.4-.872-.562a1.565,1.565,0,0,0-.836-.355,4.173,4.173,0,0,0-1.543.28,3.708,3.708,0,0,0-1.209.76,4.78,4.78,0,0,0-.841,1.1,6.72,6.72,0,0,0-.558,1.267,10.665,10.665,0,0,0-.332,1.358,12.669,12.669,0,0,0-.173,1.351c-.028.409-.043.833-.043,1.262a3.549,3.549,0,0,0,1.054,2.685,3.794,3.794,0,0,0,2.716.991H14.061a3.794,3.794,0,0,0,2.716-.991,3.547,3.547,0,0,0,1.054-2.685c0-.431-.015-.855-.043-1.262Zm0,0" transform="translate(0 -236.992)" fill="#fdfdfd"/>
  </g>
</svg>
