<svg xmlns="http://www.w3.org/2000/svg" width="49.021" height="45.957" viewBox="0 0 49.021 45.957">
  <g id="car_1_" data-name="car (1)" transform="translate(0 -15.811)">
    <g id="Group_375" data-name="Group 375" transform="translate(0 15.811)">
      <path id="Path_1230" data-name="Path 1230" d="M86.493,21.623a7.166,7.166,0,0,0-6.519,7.114v4.308H71.929l-5.745,8.617H96.54L90.8,33.045H82.846V28.736a4.3,4.3,0,0,1,3.768-4.254l5.69,5.69h16.488V15.811H92.3Zm7.842-.067h8.617v2.872H94.335Z" transform="translate(-59.772 -15.811)" fill="#fff"/>
      <path id="Path_1231" data-name="Path 1231" d="M59.293,460.509H67.91v2.872H59.293Z" transform="translate(-53.548 -417.425)" fill="#fff"/>
      <path id="Path_1232" data-name="Path 1232" d="M297.453,460.509h8.617v2.872h-8.617Z" transform="translate(-268.634 -417.425)" fill="#fff"/>
      <path id="Path_1233" data-name="Path 1233" d="M2.872,288.11v1.7h7.181a4.313,4.313,0,0,1,4.308,4.308v2.872H28.819v-2.872a4.313,4.313,0,0,1,4.308-4.308h7.181v-1.7a4.3,4.3,0,0,0,2.872-4.044V282.63H40.308v1.436a1.437,1.437,0,0,1-1.436,1.436H4.308a1.437,1.437,0,0,1-1.436-1.436V282.63H0v1.436a4.3,4.3,0,0,0,2.872,4.044Zm14.361,1.7h8.713v2.872H17.234Z" transform="translate(0 -256.779)" fill="#fff"/>
      <path id="Path_1234" data-name="Path 1234" d="M335.718,386.393h-7.181a1.437,1.437,0,0,0-1.436,1.436V390.7h4.308A4.313,4.313,0,0,0,335.718,386.393Z" transform="translate(-295.41 -350.489)" fill="#fff"/>
      <path id="Path_1235" data-name="Path 1235" d="M38.264,390.7v-2.872a1.437,1.437,0,0,0-1.436-1.436H29.647a4.313,4.313,0,0,0,4.308,4.308Z" transform="translate(-26.775 -350.489)" fill="#fff"/>
    </g>
  </g>
</svg>
