<svg xmlns="http://www.w3.org/2000/svg" width="30" height="30" viewBox="0 0 30 30">
  <g id="speedometer" transform="translate(-3018 -4649)">
    <rect id="Rectangle_1663" data-name="Rectangle 1663" width="30" height="30" transform="translate(3018 4649)" fill="none"/>
    <g id="speedometer-2" data-name="speedometer" transform="translate(3014 4474.995)">
      <g id="Group_342" data-name="Group 342" transform="translate(8 182.005)">
        <path id="Path_1218" data-name="Path 1218" d="M752.4,582.923l0-.14q0-.07-.005-.141v-.106l0-.059q-.009-.117-.018-.235l0-.059-.007-.077-.015-.154-.015-.153c0-.025-.005-.051-.008-.076l-.009-.07c-.026-.185-.049-.367-.081-.542-.016-.087-.03-.174-.046-.258l-.051-.245c-.031-.159-.071-.308-.1-.446-.008-.034-.016-.068-.025-.1l-.027-.1-.05-.176c-.016-.055-.03-.107-.045-.155l-.041-.13-.047-.145a.11.11,0,0,0-.136-.072l-3.609,1.028a.11.11,0,0,0-.078.127l.013.072.017.09c.006.033.01.069.016.107l.018.121c0,.021.007.043.01.065l.008.069c.01.094.025.195.032.3,0,.054.009.109.014.166s.005.115.008.173c.008.117.006.239.009.362v.046l0,.041c0,.027,0,.054,0,.081s0,.054,0,.081v.041l0,.059-.01.236,0,.059v.009c0,.009,0-.07,0-.036v.014l0,.023c0,.031-.006.062-.008.092l-.008.091-.011.09c-.008.06-.012.118-.022.176l-.025.169-.028.161c-.008.052-.019.1-.029.152s-.018.1-.029.141l-.03.129-.014.059-.013.048-.007.027h4.414a.11.11,0,0,0,.111-.106h0c0-.082.007-.167.011-.253s0-.174,0-.264,0-.18,0-.272C752.4,583.015,752.4,582.969,752.4,582.923Z" transform="translate(-731.057 -569.921)" fill="#ffd911"/>
        <path id="Path_1219" data-name="Path 1219" d="M656.417,335.82a.111.111,0,0,0,.059-.15l-.042-.09-.05-.105-.076-.155-.088-.176c-.016-.032-.031-.059-.047-.089l-.049-.091c-.034-.062-.068-.126-.1-.192l-.118-.2-.062-.105-.066-.106-.137-.218c-.1-.145-.2-.3-.305-.444l-.081-.112-.041-.056-.042-.055-.17-.22c-.058-.073-.118-.144-.177-.215-.03-.035-.058-.071-.089-.106l-.091-.1-.09-.1c-.03-.034-.06-.068-.091-.1l-.181-.193c-.06-.063-.121-.122-.18-.182s-.116-.117-.175-.171l-.169-.158c-.054-.051-.11-.1-.161-.144l-.15-.131-.138-.114-.122-.1c-.038-.031-.073-.057-.105-.082l-.116-.089a.11.11,0,0,0-.153.018l-1.937,2.345a.11.11,0,0,0,.007.149l.056.055c.02.02.043.042.067.067l.076.081.087.092.093.1c.032.037.067.074.1.114l.1.125c.036.042.071.088.107.134s.074.092.109.142l.109.15c.019.025.037.051.054.077l.054.079.054.079c.018.026.035.054.052.081.034.055.07.109.1.164l.1.167.025.041.023.042.046.084c.063.11.116.223.171.329l.075.161.036.078.033.077.063.147.054.139.026.065c.008.021.018.043.023.061l.035.1.032.09.035.105.031.094a.111.111,0,0,0,.146.068Z" transform="translate(-636.221 -327.451)" fill="#ffd911"/>
        <path id="Path_1220" data-name="Path 1220" d="M451.972,237.4l.1.013.114.02.129.022c.039.007.08.016.123.025l1.222-2.5-.18-.028-.12-.018-.117-.014-.225-.027-.21-.018c-.067-.005-.132-.012-.193-.015l-.175-.009-.153-.007-.13,0-.14,0a.111.111,0,0,0-.112.106l-.111,2.327a.111.111,0,0,0,.1.115Z" transform="translate(-441.641 -233.217)" fill="#ffd911"/>
        <path id="Path_1221" data-name="Path 1221" d="M596.146,269.233l.094.068.082.059.044.032.044.033.079.059a.111.111,0,0,0,.159-.028l1.6-2.431a.11.11,0,0,0-.037-.157l-.086-.049-.047-.027-.056-.032-.147-.081-.167-.091-.176-.089c-.062-.03-.125-.064-.192-.094l-.208-.1c-.071-.034-.146-.064-.222-.1s-.153-.065-.234-.1l-.061-.023-.689,2.988c.038.024.074.049.109.072Z" transform="translate(-582.529 -263.77)" fill="#ffd911"/>
        <path id="Path_1222" data-name="Path 1222" d="M188.538,240.282l.091-.012.09-.009.171-.018.16-.011.075-.005c.025,0,.049,0,.07,0l.123,0,.108,0h.212a.111.111,0,0,0,.11-.118l-.144-2.192a.111.111,0,0,0-.124-.1l-.1.012-.114.015-.159.024-.181.028c-.033,0-.062.011-.094.017l-.1.018-.2.039-.217.049-.113.026c-.038.009-.076.02-.115.03l-.236.063-.242.073-.123.038-.123.042-.124.042c-.041.014-.083.028-.124.044l-.246.094c-.082.032-.162.068-.243.1l-.12.051-.118.055-.117.054c-.039.018-.077.036-.115.055l-.223.112c-.073.037-.143.077-.212.115s-.137.074-.2.113l-.187.111c-.061.035-.117.074-.172.108l-.157.1-.139.1-.122.084c-.038.026-.071.052-.1.074l-.106.078a.11.11,0,0,0-.026.151l.91,1.338a.111.111,0,0,0,.146.034l.082-.046c.027-.015.057-.033.09-.05l.107-.056.122-.064.137-.066c.048-.022.1-.048.149-.07l.162-.071c.055-.025.113-.047.172-.071s.118-.049.18-.071l.188-.068c.031-.012.064-.022.1-.033l.1-.031.1-.032.1-.029c.067-.018.133-.039.2-.056l.2-.05c.033-.009.067-.016.1-.023l.1-.021.1-.021.1-.018.194-.034Z" transform="translate(-180.349 -236.113)" fill="#ffd911"/>
        <path id="Path_1223" data-name="Path 1223" d="M24.826,359.694l-.072.1-.072.1c-.024.034-.047.07-.07.105-.046.07-.093.14-.139.212l-.132.215-.033.054-.031.054-.062.108c-.084.143-.157.289-.231.427l-.1.208-.049.1-.045.1-.086.191-.075.181c-.024.058-.047.113-.067.166l-.057.152-.05.133-.039.114-.039.116a.111.111,0,0,0,.065.139l.847.325a.111.111,0,0,0,.14-.056l.044-.092.047-.1.058-.112.066-.128c.023-.045.05-.091.077-.139l.085-.151.1-.158.05-.082L25,361.9l.11-.17c.08-.113.158-.232.246-.346l.065-.087.032-.044.034-.043.136-.172c.046-.057.094-.112.141-.167.024-.027.046-.056.071-.083l.073-.08.072-.079c.024-.027.047-.053.072-.077l.144-.149c.047-.049.1-.094.143-.14s.092-.091.139-.132l.134-.122c.043-.04.087-.075.128-.11l.118-.1.1-.083.091-.073.045-.035.043-.033.079-.06a.111.111,0,0,0,.017-.16l-.965-1.13a.111.111,0,0,0-.161-.008l-.071.069-.039.038-.045.044-.107.108-.121.123-.125.135c-.043.048-.089.1-.134.148l-.139.162c-.048.055-.1.114-.143.173s-.1.12-.146.183l-.146.193C24.873,359.626,24.849,359.66,24.826,359.694Z" transform="translate(-22.845 -353.794)" fill="#ffd911"/>
        <path id="Path_1224" data-name="Path 1224" d="M.228,597.717l-.02.1-.023.112c-.008.042-.016.091-.025.141l-.028.161c0,.028-.01.058-.015.087l-.012.09c-.016.123-.037.254-.049.4l-.021.216c-.006.074-.01.149-.015.226-.012.153-.014.312-.019.472l0,.06v.182q0,.061,0,.122v.061l0,.061.01.244,0,.061v.034l0,.029.009.116.009.115.012.119.012.118.006.058.007.057.028.222.033.211c.01.069.023.135.034.2l0,.015a.111.111,0,0,0,.109.091h.3a.111.111,0,0,0,.111-.117c0-.017,0-.034,0-.051,0-.062-.008-.126-.01-.192l-.007-.2c0-.069,0-.14,0-.211v-.107l0-.108,0-.109.005-.115.005-.117v-.046s0,0,0,0v-.01l0-.057.018-.227,0-.057.007-.057L.736,600l.013-.112.006-.056.008-.055c.023-.148.042-.293.07-.432.013-.07.025-.138.039-.2l.044-.195c.026-.127.06-.245.088-.354l.021-.08c.007-.026.015-.05.022-.074l.041-.136c.013-.043.024-.082.036-.12l.036-.108.031-.094a.111.111,0,0,0-.077-.142l-.749-.2A.111.111,0,0,0,.228,597.717Z" transform="translate(0 -587.855)" fill="#ffd911"/>
        <path id="Path_1225" data-name="Path 1225" d="M345.26,176.4a1.722,1.722,0,0,0,2.3-.791,1.808,1.808,0,0,0,.131-.37l1.743-7.566.664-2.881.411-1.785a.282.282,0,0,0-.283-.349.271.271,0,0,0-.249.161l-.837,1.712-1.235,2.525-3.442,7.04A1.723,1.723,0,0,0,345.26,176.4Zm.819-2.436a.845.845,0,1,1-.845.845A.845.845,0,0,1,346.08,173.967Z" transform="translate(-336.558 -162.661)" fill="#ffd911"/>
      </g>
    </g>
  </g>
</svg>
