<svg xmlns="http://www.w3.org/2000/svg" width="60" height="60" viewBox="0 0 60 60">
  <g id="type_W" transform="translate(1422 -4239)">
    <rect id="Rectangle_1652" data-name="Rectangle 1652" width="60" height="60" transform="translate(-1422 4239)" fill="none"/>
    <g id="Group_298" data-name="Group 298" transform="translate(-4103.742 2563.929)">
      <path id="Path_1189" data-name="Path 1189" d="M2688.734,1705.065a23.007,23.007,0,1,1,22.752,23.027A22.816,22.816,0,0,1,2688.734,1705.065Zm42.215.025a19.265,19.265,0,0,0-38.529-.225c-.029,10.559,8.683,19.519,19.07,19.523C2722.9,1724.393,2731.185,1714.821,2730.949,1705.09Z" transform="translate(0 0)"/>
      <path id="Path_1190" data-name="Path 1190" d="M2831.843,1788.539l4.822,4.361-7.826,17.716c-1.7-2.257-1.977-4.842-3.406-6.912h-4l-2.841,6.762c-1.263-1.071-6.756-12.365-8.426-17.207a11.237,11.237,0,0,1,4.748-4.338,62.324,62.324,0,0,1,3.357,6.448c1.075,2.168,2.134,4.345,3.215,6.549h4.032Z" transform="translate(-111.616 -97.882)"/>
      <path id="Path_1191" data-name="Path 1191" d="M3043.671,1920.225c3.054-6.716,6.108-13.431,9.193-20.216,1.614,1.615,2.108,6.071,1.01,9.722-1.536,5.112-4.6,8.916-9.633,10.892Z" transform="translate(-326.247 -200.342)"/>
      <path id="Path_1192" data-name="Path 1192" d="M2774.152,1910.595l9.845,19.676C2776.082,1928.8,2770.828,1918.613,2774.152,1910.595Z" transform="translate(-77.582 -210.072)"/>
      <path id="Path_1193" data-name="Path 1193" d="M2921.341,2020.6c1.727,3.635,3.154,7.4,4.733,11.324a18.524,18.524,0,0,1-9.66.184l4.375-11.485Z" transform="translate(-209.277 -311.183)"/>
      <path id="Path_1194" data-name="Path 1194" d="M2919.981,1774.92l-4.579-10.587a16.321,16.321,0,0,1,9.582-.017c-1.3,3.691-2.941,7.078-4.441,10.521Z" transform="translate(-208.347 -74.963)"/>
    </g>
  </g>
</svg>
