<svg xmlns="http://www.w3.org/2000/svg" width="60" height="60" viewBox="0 0 60 60">
  <g id="type_C" transform="translate(1567 -4239)">
    <rect id="Rectangle_1653" data-name="Rectangle 1653" width="60" height="60" transform="translate(-1567 4239)" fill="none"/>
    <g id="Group_297" data-name="Group 297" transform="translate(-1628.639 4269.665)">
      <path id="Path_1175" data-name="Path 1175" d="M178.773,86.447c-.413.187-.834.358-1.237.563a32.318,32.318,0,0,0-3.363,2.047c-.865.583-1.683,1.238-2.515,1.871-.811.618-1.621,1.239-2.417,1.876-.67.536-1.32,1.1-1.975,1.652a.372.372,0,0,1-.454.1,1.331,1.331,0,0,1-.256-.841c.012-.319-.043-.641-.058-.962a3.9,3.9,0,0,1,.159-1.349,3.657,3.657,0,0,1,.551-1.149c.232-.311.462-.625.723-.912.459-.5.933-1,1.415-1.481.662-.665,1.34-1.316,2.006-1.977.294-.292.565-.607.868-.889q1.105-1.026,2.232-2.028c.531-.472,1.068-.94,1.621-1.385a17.945,17.945,0,0,1,3.087-2.105c.214-.109.42-.234.64-.329a2.774,2.774,0,0,1,2.341.044,15.1,15.1,0,0,1,2.015,1.169,20.16,20.16,0,0,1,2.148,1.688c.456.394.939.756,1.389,1.155.52.462,1.019.948,1.523,1.427.555.527,1.112,1.05,1.657,1.588s1.095,1.1,1.637,1.662c.588.606,1.2,1.2,1.746,1.834A5.558,5.558,0,0,1,195,90.9a4.636,4.636,0,0,1,.267,2.753,4.889,4.889,0,0,1-.078.6c-.106.4-.341.448-.638.182-.368-.331-.752-.643-1.131-.961-.524-.439-1.042-.887-1.579-1.311q-.979-.773-1.986-1.511c-.92-.674-1.835-1.358-2.786-1.986-.905-.6-1.839-1.156-2.788-1.682a9.562,9.562,0,0,0-2.645-1.041,2.632,2.632,0,0,0-1.545.067c-.321.129-.669.187-1,.288a2.281,2.281,0,0,0-.322.153Zm-11.379,6.667c.092-.01.125,0,.142-.017.7-.561,1.4-1.128,2.106-1.684.9-.706,1.781-1.429,2.706-2.1.947-.683,1.934-1.311,2.909-1.954a19.85,19.85,0,0,1,3.486-1.83,6.469,6.469,0,0,1,2.055-.523,4.585,4.585,0,0,1,1.953.388,19.613,19.613,0,0,1,1.969.914c.9.481,1.8.971,2.647,1.529,1.021.669,2.01,1.39,2.979,2.133,1.3,1,2.568,2.032,3.851,3.049a1.663,1.663,0,0,0,.25.126c0-.337,0-.617,0-.9a2.465,2.465,0,0,0-.547-1.606c-.447-.552-.93-1.077-1.424-1.588-.822-.85-1.654-1.691-2.5-2.514-1.012-.981-2.026-1.964-3.079-2.9-.9-.8-1.839-1.568-2.8-2.3a9.639,9.639,0,0,0-2.381-1.417,1.392,1.392,0,0,0-.719-.146c-.012.11-.032.214-.034.317-.005.444,0,.888-.009,1.332a1.379,1.379,0,0,1-.906,1.46,10.126,10.126,0,0,0-1.144.492c-.974.486-1.955.961-2.9,1.491-.9.5-1.776,1.059-2.646,1.617-.678.435-1.335.9-1.993,1.366-.438.309-.871.628-1.29.963-.6.478-1.178.977-1.77,1.462a2.626,2.626,0,0,0-.781,1.1A5.307,5.307,0,0,0,167.394,93.114Z" transform="translate(-89.276 -87.001)"/>
      <path id="Path_1176" data-name="Path 1176" d="M179.317-17.354c.295-.121.591-.241.885-.363a3.292,3.292,0,0,1,1.239-.307,3.259,3.259,0,0,1,1.612.438c.519.277,1.03.575,1.526.891.338.215.65.472.966.719.558.436,1.125.864,1.662,1.325s1.064.978,1.6,1.468c.583.536,1.181,1.056,1.749,1.607.8.777,1.582,1.575,2.368,2.367.433.436.872.868,1.283,1.323a6.233,6.233,0,0,1,1.5,2.2A4.617,4.617,0,0,1,195.87-3.9c-.021.267-.038.534-.069.8-.033.289-.032.6-.38.774a.881.881,0,0,1-.23-.1c-.787-.665-1.554-1.354-2.358-2-.93-.746-1.893-1.451-2.839-2.177-1.139-.874-2.329-1.676-3.548-2.432a13.17,13.17,0,0,0-2.08-1.135c-.433-.171-.839-.416-1.279-.566a4.141,4.141,0,0,0-1.318-.317,4.479,4.479,0,0,0-2.027.377c-.555.265-1.144.463-1.684.753a26.56,26.56,0,0,0-3.152,1.934c-.973.713-1.97,1.394-2.935,2.117-.761.569-1.49,1.18-2.232,1.775-.283.226-.565.453-.842.686-.308.259-.6.531-.915.784-.151.123-.326.218-.505.336a1.429,1.429,0,0,1-.365-.832c0-.659-.026-1.32.008-1.978a3.118,3.118,0,0,1,.448-1.314,8.432,8.432,0,0,1,1.387-1.666c.578-.613,1.186-1.2,1.776-1.8.629-.64,1.245-1.293,1.881-1.926.427-.425.874-.832,1.322-1.236.607-.547,1.217-1.091,1.84-1.62.48-.408.969-.808,1.475-1.182.645-.478,1.313-.926,1.969-1.39a.626.626,0,0,0,.1-.122ZM167.94-3.764c.261-.194.445-.323.62-.463,1.034-.834,2.052-1.689,3.1-2.5.775-.6,1.6-1.137,2.391-1.71a29.431,29.431,0,0,1,3.812-2.338A10.3,10.3,0,0,1,181.03-11.9a4.236,4.236,0,0,1,1.474.086,7.95,7.95,0,0,1,1.394.5,11.127,11.127,0,0,1,1.282.579c.9.506,1.8,1.014,2.663,1.581,1.008.664,1.977,1.388,2.958,2.093,1.352.972,2.64,2.026,3.907,3.106a1.536,1.536,0,0,0,.282.141c0-.32.008-.588,0-.855a2.674,2.674,0,0,0-.559-1.648c-.39-.478-.808-.934-1.226-1.388q-.682-.741-1.387-1.46c-.65-.661-1.3-1.325-1.972-1.961-.829-.783-1.681-1.542-2.53-2.3-.429-.386-.858-.774-1.312-1.129-.719-.562-1.441-1.124-2.2-1.635a6.355,6.355,0,0,0-1.865-.936,4.179,4.179,0,0,0-.438-.066c0,.321.01.587,0,.852-.021.469-.039.939-.09,1.4a.806.806,0,0,1-.426.648c-.189.1-.365.229-.559.32-.839.393-1.7.746-2.519,1.171-1,.518-1.985,1.075-2.955,1.65a39.64,39.64,0,0,0-3.972,2.743c-.764.59-1.5,1.218-2.241,1.838a2.284,2.284,0,0,0-.788,1.416A9.5,9.5,0,0,0,167.94-3.764Z" transform="translate(-89.821 0)"/>
      <path id="Path_1177" data-name="Path 1177" d="M260.289,278.955c.29.225.566.407.8.631a1.39,1.39,0,0,1,.444.93c-.535.1-1.056.006-1.571.06a5.167,5.167,0,0,0-.484-.92,1.5,1.5,0,0,0-1.3-.651c-.442.029-.887.007-1.331.008h-.482a1.392,1.392,0,0,0-.043.405,1.977,1.977,0,0,1-.073,1.066,3.793,3.793,0,0,1-1.551,0,1.935,1.935,0,0,1-.052-.323c0-1.022-.007-2.045,0-3.067a.969.969,0,0,1,.987-.991c1.439.013,2.88-.021,4.318.016a1.65,1.65,0,0,1,1.457.924,1.051,1.051,0,0,1-.188,1.265,2.841,2.841,0,0,1-.43.362C260.648,278.765,260.491,278.839,260.289,278.955Zm-3.848-.827h2.479a1.866,1.866,0,0,0,.281-.009.627.627,0,0,0,.541-.609.592.592,0,0,0-.567-.578c-.779-.017-1.558-.014-2.337,0a.356.356,0,0,0-.393.374C256.425,277.555,256.441,277.808,256.441,278.127Z" transform="translate(-168.388 -263.976)"/>
      <path id="Path_1178" data-name="Path 1178" d="M328.951,277.541c.086-.222.2-.506.307-.788a2.312,2.312,0,0,1,1.35-1.191,2.666,2.666,0,0,1,1.173-.237c.767.012,1.535-.022,2.3.008a2.858,2.858,0,0,1,2.373,1.214,1.865,1.865,0,0,1-.134,2.316,2.492,2.492,0,0,1-1.93,1.008c-.414.012-.828,0-1.242,0-.455.007-.91.03-1.365.038a2.748,2.748,0,0,1-2.654-1.6A3.992,3.992,0,0,1,328.951,277.541Zm3.831,1.776c.316-.046.541-.091.767-.108a1.543,1.543,0,0,0,1.177-.69,1.391,1.391,0,0,0,.224-1.325,1.507,1.507,0,0,0-1.1-1.07,4.415,4.415,0,0,0-1.832-.03,1.609,1.609,0,0,0-1.216,1.252,1.558,1.558,0,0,0,.9,1.692A6.472,6.472,0,0,0,332.782,279.317Z" transform="translate(-235.083 -263.279)"/>
      <path id="Path_1179" data-name="Path 1179" d="M419.927,276.2v.692c-.18.017-.335.045-.49.046-1.144,0-2.288,0-3.432,0-.144,0-.288.015-.455.024v.919c1.153.049,2.3-.006,3.492.032v.728c-1.159.021-2.31,0-3.488.014v1.062c.168.017.322.046.476.047,1.117,0,2.234,0,3.351,0h.445a.839.839,0,0,1,.1.708,1.9,1.9,0,0,1-.408.092c-1.561.011-3.122.02-4.683.012a.971.971,0,0,1-1.024-1.059c-.025-1-.01-1.992,0-2.988a1.388,1.388,0,0,1,.093-.352C414.365,276.1,419.594,276.116,419.927,276.2Z" transform="translate(-311.232 -264.005)"/>
      <path id="Path_1180" data-name="Path 1180" d="M485.189,276.922v3.5a2.972,2.972,0,0,1-1.664,0v-4.3a2.9,2.9,0,0,1,.346-.042c1.319,0,2.638-.028,3.956.011a2.439,2.439,0,0,1,1.481.648,1.956,1.956,0,0,1,.76,1.653c-.026.551-.005,1.1-.005,1.655,0,.133,0,.265,0,.383a3.3,3.3,0,0,1-1.532.035c-.01-.1-.031-.217-.031-.332,0-.619.019-1.239-.008-1.857a1.376,1.376,0,0,0-1.34-1.455c-.524-.012-1.049-.008-1.574,0A1.915,1.915,0,0,0,485.189,276.922Z" transform="translate(-373.813 -263.952)"/>
      <path id="Path_1181" data-name="Path 1181" d="M72.923,277.8a5.2,5.2,0,0,1,1.694.035,1.706,1.706,0,0,1-.7.89,2.3,2.3,0,0,1-1.6.526,5.474,5.474,0,0,0-1.162.069,13.739,13.739,0,0,1-1.435-.034,2.77,2.77,0,0,1-2.5-1.392,2.007,2.007,0,0,1,.043-1.858,2.6,2.6,0,0,1,1.806-1.285,4.561,4.561,0,0,1,1.236-.133c.724.029,1.455,0,2.169.093a2.577,2.577,0,0,1,2.127,1.437,4.548,4.548,0,0,1-1.66.048,1.766,1.766,0,0,0-.938-.75,1.877,1.877,0,0,0-.467-.095c-.417-.013-.835-.025-1.251,0a1.54,1.54,0,0,0-1.5,1.3,2.087,2.087,0,0,0,.123,1.091,1.628,1.628,0,0,0,1.43.965,4.826,4.826,0,0,0,1.168-.005,1.672,1.672,0,0,0,1.3-.776A1.088,1.088,0,0,1,72.923,277.8Z" transform="translate(0 -262.647)"/>
      <path id="Path_1182" data-name="Path 1182" d="M178.265,277.207c-.083-.449-.082-.458.1-.763h6.655a1.144,1.144,0,0,1-.024.838,2.6,2.6,0,0,1-.335.029c-.549-.018-1.1-.044-1.647-.065-.174-.007-.357-.03-.488.2-.036,1.079.018,2.205-.03,3.354a7.144,7.144,0,0,1-1.535.06.692.692,0,0,1-.237-.632q0-1.169,0-2.339c-.121-.142-.226-.282-.348-.4a.7.7,0,0,0-.618-.2,8.449,8.449,0,0,1-1.127.017A1.573,1.573,0,0,1,178.265,277.207Z" transform="translate(-99.793 -264.287)"/>
      <path id="Path_1183" data-name="Path 1183" d="M153.159,276.457v4.384a4.36,4.36,0,0,1-1.687-.067c0-1.357,0-2.673,0-3.989a1.367,1.367,0,0,1,.092-.328Z" transform="translate(-75.794 -264.299)"/>
      <path id="Path_1184" data-name="Path 1184" d="M425.719,259.392a.792.792,0,0,1,.908-.562,2.33,2.33,0,0,1,.6.229.694.694,0,0,0,.823-.008,1.2,1.2,0,0,1,1.33-.054c.271.133.3.365.074.582a1.043,1.043,0,0,1-1.166.127.891.891,0,0,0-1.216,0,1.024,1.024,0,0,1-1.077-.032A1.214,1.214,0,0,1,425.719,259.392Z" transform="translate(-321.932 -248.462)"/>
      <path id="Path_1185" data-name="Path 1185" d="M200.986,56.887l-.022-.02.019.022Z" transform="translate(-120.213 -67.217)"/>
      <path id="Path_1186" data-name="Path 1186" d="M286.111-11.689l-.023-.021.02.024Z" transform="translate(-196.613 -5.668)"/>
      <path id="Path_1187" data-name="Path 1187" d="M286.277,152.433l.024.021-.021-.024Z" transform="translate(-196.783 -152.984)"/>
      <path id="Path_1188" data-name="Path 1188" d="M201.153,57.062l.023.02-.02-.023Z" transform="translate(-120.383 -67.389)"/>
    </g>
  </g>
</svg>
