<svg xmlns="http://www.w3.org/2000/svg" width="60" height="60" viewBox="0 0 60 60">
  <g id="type_A" transform="translate(1642 -4239)">
    <rect id="Rectangle_1654" data-name="Rectangle 1654" width="60" height="60" transform="translate(-1642 4239)" fill="none"/>
    <path id="Path_1174" data-name="Path 1174" d="M-435.861,86.044a3.777,3.777,0,0,0-.237-.342,8.431,8.431,0,0,1-1.772-3.427,9.414,9.414,0,0,1-.3-2.513,8.645,8.645,0,0,1,.388-2.331,7.864,7.864,0,0,1,1.281-2.569,7.524,7.524,0,0,1,2.338-2.187,12.692,12.692,0,0,1,1.566-.829,7.336,7.336,0,0,1,2.134-.524c.225-.013.448-.065.673-.073a8.547,8.547,0,0,1,3.445.571,9.932,9.932,0,0,1,2.365,1.343c3.651-2.553,7.306-2.553,11.024,0a8.763,8.763,0,0,1,5.427-1.914,8.667,8.667,0,0,1,5.52,1.94,8.721,8.721,0,0,1,6.984-1.812,8.42,8.42,0,0,1,5.092,2.891,8.785,8.785,0,0,1,.533,10.84,8.523,8.523,0,0,1-5.91,3.582,8.722,8.722,0,0,1-6.665-1.8c-3.691,2.542-7.343,2.548-11.016,0a3.225,3.225,0,0,0-.311.19,7.786,7.786,0,0,1-1.795,1.028,8.9,8.9,0,0,1-4.487.593,9.753,9.753,0,0,1-2.439-.664,6.649,6.649,0,0,1-1.632-.961,3.542,3.542,0,0,0-.3-.189c-.218.145-.426.289-.638.424a7.106,7.106,0,0,1-1.931.954c-.243.066-.48.153-.722.222a8.755,8.755,0,0,1-3.318.211,8.42,8.42,0,0,1-2.162-.553,8.5,8.5,0,0,1-2.938-1.97,1.649,1.649,0,0,0-.2-.146Zm10.372-.69a.629.629,0,0,0-.053-.145,8.474,8.474,0,0,1-1.543-3.583,8.607,8.607,0,0,1,.117-3.746,8.137,8.137,0,0,1,1.291-2.842,2.706,2.706,0,0,0,.2-.383,6.6,6.6,0,0,0-9.081,1.052,6.691,6.691,0,0,0,.981,9.6A6.523,6.523,0,0,0-425.49,85.354Zm24.984.014a3.448,3.448,0,0,0,.285.242,6.208,6.208,0,0,0,3.46,1.1,6.84,6.84,0,0,0,2.7-.45,7.14,7.14,0,0,0,2.378-1.59,6.912,6.912,0,0,0,1.216-1.782,5.508,5.508,0,0,0,.58-1.892,6.844,6.844,0,0,0-.226-2.942,7.1,7.1,0,0,0-.987-1.963,7.444,7.444,0,0,0-1.327-1.365,7.042,7.042,0,0,0-2.085-1.1,5.008,5.008,0,0,0-1.617-.3,8.418,8.418,0,0,0-1.728.117,7.045,7.045,0,0,0-1.44.5,3.332,3.332,0,0,0-1.207.786,8.71,8.71,0,0,1,1.8,5.29A8.984,8.984,0,0,1-400.506,85.368Zm-14,0A9,9,0,0,1-414.5,74.66a6.468,6.468,0,0,0-7.946.039,8.934,8.934,0,0,1,.02,10.654A6.412,6.412,0,0,0-414.507,85.372Zm11-10.7a6.427,6.427,0,0,0-7.937.023,8.937,8.937,0,0,1-.02,10.686c2.407,1.995,6.333,1.611,7.921-.046A8.967,8.967,0,0,1-403.512,74.675Zm-20.446,9.135a6.52,6.52,0,0,0-.012-7.556A6.583,6.583,0,0,0-423.958,83.81Zm10.979-7.605c-1.852,2.5-1.294,6.18.016,7.581A6.621,6.621,0,0,0-412.979,76.2Zm10.972.094c-1.664,1.962-1.523,5.787.036,7.478A6.522,6.522,0,0,0-402.006,76.3Z" transform="translate(-1198.828 4188.759)"/>
  </g>
</svg>
