<svg id="warning" xmlns="http://www.w3.org/2000/svg" width="48" height="45.232" viewBox="0 0 48 45.232">
  <g id="Group_1584" data-name="Group 1584">
    <path id="Path_3718" data-name="Path 3718" d="M47,49.37,30.047,18.2a7.032,7.032,0,0,0-12.093,0L1,49.37A7.028,7.028,0,0,0,7.043,59.991H40.956A7.029,7.029,0,0,0,47,49.37Zm-23,5a2.812,2.812,0,1,1,2.812-2.812A2.816,2.816,0,0,1,24,54.366Zm2.812-11.25a2.812,2.812,0,0,1-5.625,0V29.054a2.812,2.812,0,0,1,5.625,0Z" transform="translate(0 -14.759)" fill="#ffd601"/>
  </g>
</svg>
